<?xml version="1.0" standalone="no"?>
<!DOCTYPE svg PUBLIC "-//W3C//DTD SVG 20010904//EN"
 "http://www.w3.org/TR/2001/REC-SVG-20010904/DTD/svg10.dtd">
<svg version="1.0" xmlns="http://www.w3.org/2000/svg"
 width="1320.000000pt" height="1000.000000pt" viewBox="0 0 1320.000000 1000.000000"
 preserveAspectRatio="xMidYMid meet">

<g transform="translate(0.000000,1000.000000) scale(0.100000,-0.100000)"
fill="#000000" stroke="none">
<path d="M2938 6350 c-40 -22 -73 -62 -83 -103 l-7 -27 -242 0 c-137 0 -257
-5 -279 -11 -49 -13 -99 -58 -121 -107 -16 -36 -22 -40 -63 -45 -51 -5 -107
-45 -138 -98 -18 -31 -20 -52 -20 -224 0 -184 1 -191 25 -233 28 -50 72 -80
132 -90 l43 -8 3 -222 c2 -196 1 -222 -13 -222 -48 0 -132 -67 -169 -135 -20
-38 -21 -53 -21 -325 0 -323 3 -338 70 -405 79 -80 14 -76 1141 -73 l999 3 41
22 c53 28 107 91 122 142 8 25 12 133 12 312 0 267 -1 275 -24 325 -27 58 -84
109 -138 126 l-38 11 0 222 0 222 45 5 c54 7 84 25 122 74 l28 37 3 186 c4
196 -2 238 -40 286 -26 33 -91 64 -134 65 -25 0 -33 5 -38 25 -9 37 -65 96
-111 116 -35 16 -70 19 -287 19 l-246 0 -11 33 c-13 39 -64 91 -104 106 -17 7
-110 11 -225 11 -175 -1 -201 -3 -234 -20z m467 -71 c66 -58 63 -59 -230 -59
-146 0 -265 2 -265 5 0 3 7 17 16 31 32 48 55 53 256 54 l187 0 36 -31z m622
-136 c39 -18 73 -65 73 -100 l0 -23 -694 0 c-602 0 -695 -2 -706 -15 -7 -8
-10 -22 -6 -30 5 -13 90 -15 706 -15 l700 0 0 -129 0 -128 -42 -12 c-145 -38
-501 -101 -576 -101 l-32 0 0 59 c0 44 -4 60 -16 65 -9 3 -127 6 -264 6 -286
0 -280 2 -280 -82 l0 -51 -72 7 c-135 13 -354 54 -498 93 l-65 18 -3 176 c-2
169 -2 177 20 210 49 73 -1 69 906 69 740 0 817 -2 849 -17z m-1847 -408 c0
-260 0 -265 -20 -265 -34 0 -79 28 -95 60 -12 23 -15 67 -15 205 0 196 6 221
64 249 69 34 66 45 66 -249z m2055 251 c19 -8 44 -30 55 -48 19 -31 20 -46 18
-215 l-3 -183 -30 -30 c-19 -18 -46 -33 -68 -37 l-37 -6 0 267 c0 294 -4 280
65 252z m-845 -406 l0 -70 -215 0 -215 0 0 70 0 70 215 0 215 0 0 -70z m-1025
31 c123 -31 269 -57 390 -71 61 -7 116 -14 123 -16 8 -2 12 -26 12 -75 l0 -72
-72 7 c-104 10 -282 41 -432 76 -72 17 -131 30 -133 30 -2 0 -3 34 -3 76 0 67
2 75 18 70 9 -3 53 -14 97 -25z m1735 -45 l0 -74 -107 -25 c-155 -37 -252 -55
-386 -72 -173 -22 -158 -28 -155 57 l3 72 144 18 c146 18 458 79 499 97 1 1 2
-32 2 -73z m-950 -186 c0 -54 4 -72 15 -76 30 -12 45 15 45 82 l0 64 90 0 90
0 0 -120 0 -120 -215 0 -215 0 0 120 0 120 95 0 95 0 0 -70z m-783 20 c145
-35 276 -58 403 -72 l120 -12 0 -72 c0 -48 4 -75 14 -83 9 -8 91 -11 277 -9
l264 3 5 80 5 80 137 16 c76 10 217 34 314 53 97 20 181 38 187 39 9 1 13 -60
15 -230 l2 -233 -930 0 -930 0 0 236 c0 203 2 235 15 231 8 -4 54 -16 102 -27z
m-155 -1273 c22 -40 24 -47 10 -43 -9 2 -30 7 -46 11 -44 10 -84 42 -106 85
-19 36 -20 60 -20 318 l0 278 27 41 c14 22 42 50 62 61 l36 21 5 -362 5 -362
27 -48z m178 523 c0 -268 4 -296 53 -349 50 -54 85 -61 307 -61 178 0 210 3
245 19 50 22 91 69 105 119 5 21 10 144 10 280 l0 243 68 -3 67 -3 5 -266 c5
-260 5 -266 29 -301 13 -19 40 -46 59 -59 34 -23 42 -24 254 -27 246 -3 281 4
331 69 41 55 47 98 47 352 l0 237 65 0 65 0 0 -357 c0 -337 -1 -360 -20 -390
-10 -18 -34 -40 -52 -50 -31 -17 -84 -18 -817 -21 -529 -2 -802 1 -837 8 -55
12 -95 44 -113 93 -7 18 -11 154 -11 373 l0 344 70 0 70 0 0 -250z m1862 203
c55 -53 60 -82 56 -379 l-3 -271 -28 -37 c-16 -20 -39 -44 -52 -52 -22 -14
-96 -36 -102 -30 -1 1 9 24 22 51 l25 48 0 358 0 359 28 -11 c15 -6 39 -22 54
-36z m-1202 -28 l0 -65 -300 0 -300 0 0 65 0 65 300 0 300 0 0 -65z m850 0 l0
-65 -295 0 -295 0 0 65 0 65 295 0 295 0 0 -65z m-851 -284 c-4 -132 -7 -153
-25 -178 -41 -57 -70 -63 -279 -63 -172 0 -193 2 -223 20 -63 38 -72 68 -72
228 l0 142 301 0 301 0 -3 -149z m851 2 c0 -235 -10 -243 -295 -243 -200 0
-217 3 -265 55 -24 26 -25 32 -28 181 l-3 154 295 0 296 0 0 -147z"/>
<path d="M2444 6006 c-13 -34 4 -47 53 -44 44 3 48 5 48 28 0 23 -4 25 -48 28
-35 2 -49 -1 -53 -12z"/>
<path d="M4900 5045 l0 -435 475 0 475 0 0 145 0 145 -375 0 -375 0 0 -45 0
-45 328 -2 327 -3 3 -47 3 -48 -380 0 -381 0 0 340 0 340 378 -2 377 -3 3 -47
3 -48 -330 0 -331 0 0 -145 0 -145 290 0 290 0 0 45 0 45 -242 2 -243 3 -3 48
-3 47 330 0 331 0 0 145 0 145 -475 0 -475 0 0 -435z"/>
<path d="M6030 5045 l0 -435 145 0 145 0 0 54 c0 46 -7 65 -47 135 l-48 82 -3
-86 -3 -85 -50 0 -49 0 2 338 3 337 77 3 76 3 157 -275 c86 -151 162 -282 169
-291 10 -13 38 30 180 275 l168 291 77 -3 76 -3 3 -337 2 -338 -50 0 -50 0 -2
285 -3 286 -165 -286 -165 -285 -60 3 -60 2 -165 282 -165 282 -3 -85 -3 -85
143 -250 142 -249 111 0 110 0 92 163 93 162 0 -162 0 -163 145 0 145 0 0 435
0 435 -153 0 -154 0 -137 -245 c-76 -135 -140 -245 -141 -245 -2 0 -65 110
-140 245 l-138 245 -153 0 -154 0 0 -435z"/>
<path d="M7380 5045 l0 -435 146 0 145 0 -3 48 -3 47 -98 3 -97 3 2 337 3 337
48 3 47 3 0 -290 0 -291 50 0 50 0 0 335 0 335 -145 0 -145 0 0 -435z"/>
<path d="M8163 5465 c-80 -22 -131 -52 -190 -111 -97 -97 -146 -243 -125 -372
30 -182 164 -324 340 -361 32 -6 164 -11 327 -11 l275 0 0 240 0 240 -275 0
-275 0 0 -45 0 -45 230 0 230 0 0 -145 0 -145 -245 0 c-222 0 -249 2 -299 21
-72 26 -148 96 -182 166 -39 78 -44 186 -14 265 29 79 96 150 178 190 l67 33
245 0 245 0 3 -47 3 -48 -224 0 c-269 0 -306 -8 -373 -77 -57 -58 -79 -126
-64 -201 12 -65 29 -99 72 -138 64 -61 78 -64 293 -64 l195 0 0 45 0 45 -177
0 c-150 0 -183 3 -212 18 -48 24 -73 62 -78 119 -5 57 19 102 69 133 31 19 51
20 311 20 l277 0 0 145 0 145 -287 -1 c-215 0 -301 -4 -340 -14z"/>
<path d="M8970 5335 l0 -145 356 0 c226 0 362 4 375 10 12 7 19 21 19 40 0 19
-7 33 -19 40 -12 6 -134 10 -325 10 l-306 0 0 51 0 50 323 -3 c301 -3 324 -4
356 -23 52 -31 74 -67 75 -124 1 -54 -17 -88 -68 -125 -26 -20 -42 -21 -407
-24 l-379 -3 0 -240 0 -239 145 0 145 0 0 100 0 100 108 0 108 0 56 -97 55
-98 168 -3 c92 -1 165 1 163 6 -1 5 -38 70 -82 145 l-78 137 -55 0 c-62 0 -62
10 8 -112 22 -36 39 -69 39 -72 0 -3 -24 -6 -54 -6 l-54 0 -53 95 -54 95 -187
0 -188 0 0 -95 0 -95 -45 0 -45 0 0 145 0 144 343 3 344 3 49 30 c30 19 60 49
79 79 27 44 30 58 30 126 0 68 -3 82 -30 126 -19 30 -49 60 -79 79 l-49 30
-394 3 -393 3 0 -146z"/>
<path d="M10536 5368 c-35 -62 -148 -258 -249 -435 l-185 -323 167 0 166 0
164 285 c90 157 167 287 171 290 4 2 12 -6 18 -19 11 -24 223 -391 250 -433
14 -23 14 -23 -44 -23 l-59 1 -80 139 c-44 77 -82 140 -85 140 -3 0 -16 -20
-29 -44 l-24 -44 83 -146 84 -146 167 0 167 0 -85 148 c-47 81 -148 254 -224
385 -93 162 -140 234 -145 225 -20 -31 -374 -644 -377 -651 -1 -5 -28 -7 -59
-5 l-57 3 188 326 c103 180 203 352 220 383 l32 56 -54 0 -55 0 -66 -112z"/>
</g>
</svg>
